<svg version="1.1" viewBox="0.0 0.0 960.0 720.0" fill="none" stroke="none" stroke-width="0"
    stroke-miterlimit="10" xmlns:xlink="http://www.w3.org/1999/xlink" xmlns="http://www.w3.org/2000/svg">
    <clipPath id="p.0">
    <path d="m0 0l960.0 0l0 720.0l-960.0 0l0 -720.0z" clip-rule="nonzero"/>
    </clipPath>
    <g clip-path="url(#p.0)">
        <path fill="currentcolor" d="m185.07896 94.188736l271.3001 0l0 0c149.83493 0 271.30008 108.6776 271.30008
            242.7382c0 134.06061 -121.46515 242.73816 -271.30008 242.73816l-271.3001 0z" fill-rule="evenodd"/>
        <path fill="#e63946" d="m409.7784 450.05798q-6.765625 -10.9375 -15.9375 -23.65625q-9.171875 -12.71875
            -19.953125 -25.421875q-10.78125 -12.71875 -22.375 -24.46875q-11.578125 -11.75 -23.171875 -20.765625l0
            94.3125l-50.203125 0l0 -223.04688l50.203125 0l0 84.328125q19.640625 -20.609375 39.4375 -42.96875q19.796875
            -22.375 36.84375 -41.359375l59.546875 0q-22.84375 27.03125 -45.859375 52.140625q-23.015625 25.109375
            -48.4375 50.53125q26.703125 22.203125 51.640625 52.78125q24.953125 30.578125 47.8125 67.59375l-59.546875 0z"
            fill-rule="nonzero"/>
        <path fill="#e63946" d="m534.1178 226.0615q49.875 0 76.59375 17.546875q26.71875 17.53125 26.71875 57.453125q0
            40.234375 -27.046875 58.09375q-27.03125 17.859375 -77.234375 17.859375l-15.78125 0l0 74.671875l-50.203125 0l0
            -219.82812q16.40625 -3.21875 34.75 -4.5q18.359375 -1.296875 32.203125 -1.296875zm3.21875 42.8125q-5.484375 0
            -10.796875 0.328125q-5.296875 0.3125 -9.171875 0.640625l0 64.359375l15.78125 0q26.0625 0 39.25 -7.078125q13.203125
            -7.078125 13.203125 -26.390625q0 -9.328125 -3.375 -15.4375q-3.375 -6.125 -9.65625 -9.828125q-6.28125 -3.703125
            -15.296875 -5.140625q-9.0 -1.453125 -19.9375 -1.453125z" fill-rule="nonzero"/>
    </g>
</svg>